<svg width="16" height="16" viewBox="0 0 16 16" fill="none" xmlns="http://www.w3.org/2000/svg">
<path d="M2.6665 13V3.00004C2.6665 2.55801 2.8421 2.13409 3.15466 1.82153C3.46722 1.50897 3.89114 1.33337 4.33317 1.33337H12.6665C12.8433 1.33337 13.0129 1.40361 13.1379 1.52864C13.2629 1.65366 13.3332 1.82323 13.3332 2.00004V14C13.3332 14.1769 13.2629 14.3464 13.1379 14.4714C13.0129 14.5965 12.8433 14.6667 12.6665 14.6667H4.33317C3.89114 14.6667 3.46722 14.4911 3.15466 14.1786C2.8421 13.866 2.6665 13.4421 2.6665 13ZM2.6665 13C2.6665 12.558 2.8421 12.1341 3.15466 11.8215C3.46722 11.509 3.89114 11.3334 4.33317 11.3334H13.3332M5.99984 6.33337L7.33317 7.66671L9.99984 5.00004" stroke="#1A41C2" stroke-linecap="round" stroke-linejoin="round"/>
</svg>
