<svg width="203" height="132" viewBox="0 0 203 132" fill="none" xmlns="http://www.w3.org/2000/svg">
<path d="M0.75 11.185C0.75 10.755 0.85 10.375 1.05 10.045C1.24 9.705 1.505 9.44 1.845 9.25C2.175 9.05 2.555 8.95 2.985 8.95H11.445C11.875 8.95 12.255 9.05 12.585 9.25C12.925 9.44 13.19 9.705 13.38 10.045C13.58 10.375 13.68 10.755 13.68 11.185V11.215C13.68 11.645 13.58 12.03 13.38 12.37C13.19 12.7 12.925 12.965 12.585 13.165C12.255 13.355 11.875 13.45 11.445 13.45H2.985C2.555 13.45 2.175 13.355 1.845 13.165C1.505 12.965 1.24 12.7 1.05 12.37C0.85 12.03 0.75 11.645 0.75 11.215V11.185ZM9.17285 11.185C9.17285 10.755 9.27285 10.375 9.47285 10.045C9.66285 9.705 9.92785 9.44 10.2679 9.25C10.5979 9.05 10.9779 8.95 11.4079 8.95H19.8679C20.2979 8.95 20.6779 9.05 21.0079 9.25C21.3479 9.44 21.6129 9.705 21.8029 10.045C22.0029 10.375 22.1029 10.755 22.1029 11.185V11.215C22.1029 11.645 22.0029 12.03 21.8029 12.37C21.6129 12.7 21.3479 12.965 21.0079 13.165C20.6779 13.355 20.2979 13.45 19.8679 13.45H11.4079C10.9779 13.45 10.5979 13.355 10.2679 13.165C9.92785 12.965 9.66285 12.7 9.47285 12.37C9.27285 12.03 9.17285 11.645 9.17285 11.215V11.185ZM17.5957 11.185C17.5957 10.755 17.6957 10.375 17.8957 10.045C18.0857 9.705 18.3507 9.44 18.6907 9.25C19.0207 9.05 19.4007 8.95 19.8307 8.95H24.1507C24.5807 8.95 24.9607 9.05 25.2907 9.25C25.6307 9.44 25.8957 9.705 26.0857 10.045C26.2857 10.375 26.3857 10.755 26.3857 11.185V11.215C26.3857 11.645 26.2857 12.03 26.0857 12.37C25.8957 12.7 25.6307 12.965 25.2907 13.165C24.9607 13.355 24.5807 13.45 24.1507 13.45H19.8307C19.4007 13.45 19.0207 13.355 18.6907 13.165C18.3507 12.965 18.0857 12.7 17.8957 12.37C17.6957 12.03 17.5957 11.645 17.5957 11.215V11.185ZM21.8877 11.185C21.8877 10.755 21.9877 10.375 22.1877 10.045C22.3777 9.705 22.6427 9.44 22.9827 9.25C23.3127 9.05 23.6927 8.95 24.1227 8.95H32.5827C33.0127 8.95 33.3927 9.05 33.7227 9.25C34.0627 9.44 34.3277 9.705 34.5177 10.045C34.7177 10.375 34.8177 10.755 34.8177 11.185V11.215C34.8177 11.645 34.7177 12.03 34.5177 12.37C34.3277 12.7 34.0627 12.965 33.7227 13.165C33.3927 13.355 33.0127 13.45 32.5827 13.45H24.1227C23.6927 13.45 23.3127 13.355 22.9827 13.165C22.6427 12.965 22.3777 12.7 22.1877 12.37C21.9877 12.03 21.8877 11.645 21.8877 11.215V11.185ZM30.3105 11.185C30.3105 10.755 30.4105 10.375 30.6105 10.045C30.8005 9.705 31.0655 9.44 31.4055 9.25C31.7355 9.05 32.1155 8.95 32.5455 8.95H41.0055C41.4355 8.95 41.8155 9.05 42.1455 9.25C42.4855 9.44 42.7505 9.705 42.9405 10.045C43.1405 10.375 43.2405 10.755 43.2405 11.185V11.215C43.2405 11.645 43.1405 12.03 42.9405 12.37C42.7505 12.7 42.4855 12.965 42.1455 13.165C41.8155 13.355 41.4355 13.45 41.0055 13.45H32.5455C32.1155 13.45 31.7355 13.355 31.4055 13.165C31.0655 12.965 30.8005 12.7 30.6105 12.37C30.4105 12.03 30.3105 11.645 30.3105 11.215V11.185ZM47.7275 11.185C47.7275 10.755 47.8275 10.375 48.0275 10.045C48.2175 9.705 48.4825 9.44 48.8225 9.25C49.1525 9.05 49.5325 8.95 49.9625 8.95H54.2825C54.7125 8.95 55.0925 9.05 55.4225 9.25C55.7625 9.44 56.0275 9.705 56.2175 10.045C56.4175 10.375 56.5175 10.755 56.5175 11.185V11.215C56.5175 11.645 56.4175 12.03 56.2175 12.37C56.0275 12.7 55.7625 12.965 55.4225 13.165C55.0925 13.355 54.7125 13.45 54.2825 13.45H49.9625C49.5325 13.45 49.1525 13.355 48.8225 13.165C48.4825 12.965 48.2175 12.7 48.0275 12.37C47.8275 12.03 47.7275 11.645 47.7275 11.215V11.185ZM52.0195 11.185C52.0195 10.755 52.1195 10.375 52.3195 10.045C52.5095 9.705 52.7745 9.44 53.1145 9.25C53.4445 9.05 53.8245 8.95 54.2545 8.95H58.5745C59.0045 8.95 59.3845 9.05 59.7145 9.25C60.0545 9.44 60.3195 9.705 60.5095 10.045C60.7095 10.375 60.8095 10.755 60.8095 11.185V11.215C60.8095 11.645 60.7095 12.03 60.5095 12.37C60.3195 12.7 60.0545 12.965 59.7145 13.165C59.3845 13.355 59.0045 13.45 58.5745 13.45H54.2545C53.8245 13.45 53.4445 13.355 53.1145 13.165C52.7745 12.965 52.5095 12.7 52.3195 12.37C52.1195 12.03 52.0195 11.645 52.0195 11.215V11.185ZM56.3115 11.185C56.3115 10.755 56.4115 10.375 56.6115 10.045C56.8015 9.705 57.0665 9.44 57.4065 9.25C57.7365 9.05 58.1165 8.95 58.5465 8.95H67.0065C67.4365 8.95 67.8165 9.05 68.1465 9.25C68.4865 9.44 68.7515 9.705 68.9415 10.045C69.1415 10.375 69.2415 10.755 69.2415 11.185V11.215C69.2415 11.645 69.1415 12.03 68.9415 12.37C68.7515 12.7 68.4865 12.965 68.1465 13.165C67.8165 13.355 67.4365 13.45 67.0065 13.45H58.5465C58.1165 13.45 57.7365 13.355 57.4065 13.165C57.0665 12.965 56.8015 12.7 56.6115 12.37C56.4115 12.03 56.3115 11.645 56.3115 11.215V11.185ZM64.7344 11.185C64.7344 10.755 64.8344 10.375 65.0344 10.045C65.2244 9.705 65.4894 9.44 65.8294 9.25C66.1594 9.05 66.5394 8.95 66.9694 8.95H75.4294C75.8594 8.95 76.2394 9.05 76.5694 9.25C76.9094 9.44 77.1744 9.705 77.3644 10.045C77.5644 10.375 77.6644 10.755 77.6644 11.185V11.215C77.6644 11.645 77.5644 12.03 77.3644 12.37C77.1744 12.7 76.9094 12.965 76.5694 13.165C76.2394 13.355 75.8594 13.45 75.4294 13.45H66.9694C66.5394 13.45 66.1594 13.355 65.8294 13.165C65.4894 12.965 65.2244 12.7 65.0344 12.37C64.8344 12.03 64.7344 11.645 64.7344 11.215V11.185ZM73.1572 11.185C73.1572 10.755 73.2572 10.375 73.4572 10.045C73.6472 9.705 73.9122 9.44 74.2522 9.25C74.5822 9.05 74.9622 8.95 75.3922 8.95H83.8522C84.2822 8.95 84.6622 9.05 84.9922 9.25C85.3322 9.44 85.5972 9.705 85.7872 10.045C85.9872 10.375 86.0872 10.755 86.0872 11.185V11.215C86.0872 11.645 85.9872 12.03 85.7872 12.37C85.5972 12.7 85.3322 12.965 84.9922 13.165C84.6622 13.355 84.2822 13.45 83.8522 13.45H75.3922C74.9622 13.45 74.5822 13.355 74.2522 13.165C73.9122 12.965 73.6472 12.7 73.4572 12.37C73.2572 12.03 73.1572 11.645 73.1572 11.215V11.185Z" fill="black" fill-opacity="0.8"/>
<path d="M0.75 39.185C0.75 38.755 0.85 38.375 1.05 38.045C1.24 37.705 1.505 37.44 1.845 37.25C2.175 37.05 2.555 36.95 2.985 36.95H11.445C11.875 36.95 12.255 37.05 12.585 37.25C12.925 37.44 13.19 37.705 13.38 38.045C13.58 38.375 13.68 38.755 13.68 39.185V39.215C13.68 39.645 13.58 40.03 13.38 40.37C13.19 40.7 12.925 40.965 12.585 41.165C12.255 41.355 11.875 41.45 11.445 41.45H2.985C2.555 41.45 2.175 41.355 1.845 41.165C1.505 40.965 1.24 40.7 1.05 40.37C0.85 40.03 0.75 39.645 0.75 39.215V39.185ZM9.17285 39.185C9.17285 38.755 9.27285 38.375 9.47285 38.045C9.66285 37.705 9.92785 37.44 10.2679 37.25C10.5979 37.05 10.9779 36.95 11.4079 36.95H19.8679C20.2979 36.95 20.6779 37.05 21.0079 37.25C21.3479 37.44 21.6129 37.705 21.8029 38.045C22.0029 38.375 22.1029 38.755 22.1029 39.185V39.215C22.1029 39.645 22.0029 40.03 21.8029 40.37C21.6129 40.7 21.3479 40.965 21.0079 41.165C20.6779 41.355 20.2979 41.45 19.8679 41.45H11.4079C10.9779 41.45 10.5979 41.355 10.2679 41.165C9.92785 40.965 9.66285 40.7 9.47285 40.37C9.27285 40.03 9.17285 39.645 9.17285 39.215V39.185ZM17.5957 39.185C17.5957 38.755 17.6957 38.375 17.8957 38.045C18.0857 37.705 18.3507 37.44 18.6907 37.25C19.0207 37.05 19.4007 36.95 19.8307 36.95H28.2907C28.7207 36.95 29.1007 37.05 29.4307 37.25C29.7707 37.44 30.0357 37.705 30.2257 38.045C30.4257 38.375 30.5257 38.755 30.5257 39.185V39.215C30.5257 39.645 30.4257 40.03 30.2257 40.37C30.0357 40.7 29.7707 40.965 29.4307 41.165C29.1007 41.355 28.7207 41.45 28.2907 41.45H19.8307C19.4007 41.45 19.0207 41.355 18.6907 41.165C18.3507 40.965 18.0857 40.7 17.8957 40.37C17.6957 40.03 17.5957 39.645 17.5957 39.215V39.185ZM26.0186 39.185C26.0186 38.755 26.1186 38.375 26.3186 38.045C26.5086 37.705 26.7736 37.44 27.1136 37.25C27.4436 37.05 27.8236 36.95 28.2536 36.95H36.7136C37.1436 36.95 37.5236 37.05 37.8536 37.25C38.1936 37.44 38.4586 37.705 38.6486 38.045C38.8486 38.375 38.9486 38.755 38.9486 39.185V39.215C38.9486 39.645 38.8486 40.03 38.6486 40.37C38.4586 40.7 38.1936 40.965 37.8536 41.165C37.5236 41.355 37.1436 41.45 36.7136 41.45H28.2536C27.8236 41.45 27.4436 41.355 27.1136 41.165C26.7736 40.965 26.5086 40.7 26.3186 40.37C26.1186 40.03 26.0186 39.645 26.0186 39.215V39.185ZM34.4414 39.185C34.4414 38.755 34.5414 38.375 34.7414 38.045C34.9314 37.705 35.1964 37.44 35.5364 37.25C35.8664 37.05 36.2464 36.95 36.6764 36.95H45.1364C45.5664 36.95 45.9464 37.05 46.2764 37.25C46.6164 37.44 46.8814 37.705 47.0714 38.045C47.2714 38.375 47.3714 38.755 47.3714 39.185V39.215C47.3714 39.645 47.2714 40.03 47.0714 40.37C46.8814 40.7 46.6164 40.965 46.2764 41.165C45.9464 41.355 45.5664 41.45 45.1364 41.45H36.6764C36.2464 41.45 35.8664 41.355 35.5364 41.165C35.1964 40.965 34.9314 40.7 34.7414 40.37C34.5414 40.03 34.4414 39.645 34.4414 39.215V39.185ZM42.8643 39.185C42.8643 38.755 42.9643 38.375 43.1643 38.045C43.3543 37.705 43.6193 37.44 43.9593 37.25C44.2893 37.05 44.6693 36.95 45.0993 36.95H53.5593C53.9893 36.95 54.3693 37.05 54.6993 37.25C55.0393 37.44 55.3043 37.705 55.4943 38.045C55.6943 38.375 55.7943 38.755 55.7943 39.185V39.215C55.7943 39.645 55.6943 40.03 55.4943 40.37C55.3043 40.7 55.0393 40.965 54.6993 41.165C54.3693 41.355 53.9893 41.45 53.5593 41.45H45.0993C44.6693 41.45 44.2893 41.355 43.9593 41.165C43.6193 40.965 43.3543 40.7 43.1643 40.37C42.9643 40.03 42.8643 39.645 42.8643 39.215V39.185ZM51.2871 39.185C51.2871 38.755 51.3871 38.375 51.5871 38.045C51.7771 37.705 52.0421 37.44 52.3821 37.25C52.7121 37.05 53.0921 36.95 53.5221 36.95H61.9821C62.4121 36.95 62.7921 37.05 63.1221 37.25C63.4621 37.44 63.7271 37.705 63.9171 38.045C64.1171 38.375 64.2171 38.755 64.2171 39.185V39.215C64.2171 39.645 64.1171 40.03 63.9171 40.37C63.7271 40.7 63.4621 40.965 63.1221 41.165C62.7921 41.355 62.4121 41.45 61.9821 41.45H53.5221C53.0921 41.45 52.7121 41.355 52.3821 41.165C52.0421 40.965 51.7771 40.7 51.5871 40.37C51.3871 40.03 51.2871 39.645 51.2871 39.215V39.185ZM59.71 39.185C59.71 38.755 59.81 38.375 60.01 38.045C60.2 37.705 60.465 37.44 60.805 37.25C61.135 37.05 61.515 36.95 61.945 36.95H70.405C70.835 36.95 71.215 37.05 71.545 37.25C71.885 37.44 72.15 37.705 72.34 38.045C72.54 38.375 72.64 38.755 72.64 39.185V39.215C72.64 39.645 72.54 40.03 72.34 40.37C72.15 40.7 71.885 40.965 71.545 41.165C71.215 41.355 70.835 41.45 70.405 41.45H61.945C61.515 41.45 61.135 41.355 60.805 41.165C60.465 40.965 60.2 40.7 60.01 40.37C59.81 40.03 59.71 39.645 59.71 39.215V39.185ZM77.127 39.185C77.127 38.755 77.227 38.375 77.427 38.045C77.617 37.705 77.882 37.44 78.222 37.25C78.552 37.05 78.932 36.95 79.362 36.95H87.822C88.252 36.95 88.632 37.05 88.962 37.25C89.302 37.44 89.567 37.705 89.757 38.045C89.957 38.375 90.057 38.755 90.057 39.185V39.215C90.057 39.645 89.957 40.03 89.757 40.37C89.567 40.7 89.302 40.965 88.962 41.165C88.632 41.355 88.252 41.45 87.822 41.45H79.362C78.932 41.45 78.552 41.355 78.222 41.165C77.882 40.965 77.617 40.7 77.427 40.37C77.227 40.03 77.127 39.645 77.127 39.215V39.185ZM85.5498 39.185C85.5498 38.755 85.6498 38.375 85.8498 38.045C86.0398 37.705 86.3048 37.44 86.6448 37.25C86.9748 37.05 87.3548 36.95 87.7848 36.95H96.2448C96.6748 36.95 97.0548 37.05 97.3848 37.25C97.7248 37.44 97.9898 37.705 98.1798 38.045C98.3798 38.375 98.4798 38.755 98.4798 39.185V39.215C98.4798 39.645 98.3798 40.03 98.1798 40.37C97.9898 40.7 97.7248 40.965 97.3848 41.165C97.0548 41.355 96.6748 41.45 96.2448 41.45H87.7848C87.3548 41.45 86.9748 41.355 86.6448 41.165C86.3048 40.965 86.0398 40.7 85.8498 40.37C85.6498 40.03 85.5498 39.645 85.5498 39.215V39.185ZM93.9727 39.185C93.9727 38.755 94.0727 38.375 94.2727 38.045C94.4627 37.705 94.7277 37.44 95.0677 37.25C95.3977 37.05 95.7777 36.95 96.2077 36.95H104.668C105.098 36.95 105.478 37.05 105.808 37.25C106.148 37.44 106.413 37.705 106.603 38.045C106.803 38.375 106.903 38.755 106.903 39.185V39.215C106.903 39.645 106.803 40.03 106.603 40.37C106.413 40.7 106.148 40.965 105.808 41.165C105.478 41.355 105.098 41.45 104.668 41.45H96.2077C95.7777 41.45 95.3977 41.355 95.0677 41.165C94.7277 40.965 94.4627 40.7 94.2727 40.37C94.0727 40.03 93.9727 39.645 93.9727 39.215V39.185ZM102.396 39.185C102.396 38.755 102.496 38.375 102.696 38.045C102.886 37.705 103.151 37.44 103.491 37.25C103.821 37.05 104.201 36.95 104.631 36.95H108.951C109.381 36.95 109.761 37.05 110.091 37.25C110.431 37.44 110.696 37.705 110.886 38.045C111.086 38.375 111.186 38.755 111.186 39.185V39.215C111.186 39.645 111.086 40.03 110.886 40.37C110.696 40.7 110.431 40.965 110.091 41.165C109.761 41.355 109.381 41.45 108.951 41.45H104.631C104.201 41.45 103.821 41.355 103.491 41.165C103.151 40.965 102.886 40.7 102.696 40.37C102.496 40.03 102.396 39.645 102.396 39.215V39.185ZM106.687 39.185C106.687 38.755 106.787 38.375 106.987 38.045C107.177 37.705 107.442 37.44 107.782 37.25C108.112 37.05 108.492 36.95 108.922 36.95H117.383C117.813 36.95 118.193 37.05 118.523 37.25C118.863 37.44 119.128 37.705 119.318 38.045C119.518 38.375 119.618 38.755 119.618 39.185V39.215C119.618 39.645 119.518 40.03 119.318 40.37C119.128 40.7 118.863 40.965 118.523 41.165C118.193 41.355 117.813 41.45 117.383 41.45H108.922C108.492 41.45 108.112 41.355 107.782 41.165C107.442 40.965 107.177 40.7 106.987 40.37C106.787 40.03 106.687 39.645 106.687 39.215V39.185ZM115.11 39.185C115.11 38.755 115.21 38.375 115.41 38.045C115.6 37.705 115.865 37.44 116.205 37.25C116.535 37.05 116.915 36.95 117.345 36.95H125.805C126.235 36.95 126.615 37.05 126.945 37.25C127.285 37.44 127.55 37.705 127.74 38.045C127.94 38.375 128.04 38.755 128.04 39.185V39.215C128.04 39.645 127.94 40.03 127.74 40.37C127.55 40.7 127.285 40.965 126.945 41.165C126.615 41.355 126.235 41.45 125.805 41.45H117.345C116.915 41.45 116.535 41.355 116.205 41.165C115.865 40.965 115.6 40.7 115.41 40.37C115.21 40.03 115.11 39.645 115.11 39.215V39.185Z" fill="black" fill-opacity="0.4"/>
<path d="M0.75 67.185C0.75 66.755 0.85 66.375 1.05 66.045C1.24 65.705 1.505 65.44 1.845 65.25C2.175 65.05 2.555 64.95 2.985 64.95H11.445C11.875 64.95 12.255 65.05 12.585 65.25C12.925 65.44 13.19 65.705 13.38 66.045C13.58 66.375 13.68 66.755 13.68 67.185V67.215C13.68 67.645 13.58 68.03 13.38 68.37C13.19 68.7 12.925 68.965 12.585 69.165C12.255 69.355 11.875 69.45 11.445 69.45H2.985C2.555 69.45 2.175 69.355 1.845 69.165C1.505 68.965 1.24 68.7 1.05 68.37C0.85 68.03 0.75 67.645 0.75 67.215V67.185ZM9.17285 67.185C9.17285 66.755 9.27285 66.375 9.47285 66.045C9.66285 65.705 9.92785 65.44 10.2679 65.25C10.5979 65.05 10.9779 64.95 11.4079 64.95H19.8679C20.2979 64.95 20.6779 65.05 21.0079 65.25C21.3479 65.44 21.6129 65.705 21.8029 66.045C22.0029 66.375 22.1029 66.755 22.1029 67.185V67.215C22.1029 67.645 22.0029 68.03 21.8029 68.37C21.6129 68.7 21.3479 68.965 21.0079 69.165C20.6779 69.355 20.2979 69.45 19.8679 69.45H11.4079C10.9779 69.45 10.5979 69.355 10.2679 69.165C9.92785 68.965 9.66285 68.7 9.47285 68.37C9.27285 68.03 9.17285 67.645 9.17285 67.215V67.185ZM17.5957 67.185C17.5957 66.755 17.6957 66.375 17.8957 66.045C18.0857 65.705 18.3507 65.44 18.6907 65.25C19.0207 65.05 19.4007 64.95 19.8307 64.95H28.2907C28.7207 64.95 29.1007 65.05 29.4307 65.25C29.7707 65.44 30.0357 65.705 30.2257 66.045C30.4257 66.375 30.5257 66.755 30.5257 67.185V67.215C30.5257 67.645 30.4257 68.03 30.2257 68.37C30.0357 68.7 29.7707 68.965 29.4307 69.165C29.1007 69.355 28.7207 69.45 28.2907 69.45H19.8307C19.4007 69.45 19.0207 69.355 18.6907 69.165C18.3507 68.965 18.0857 68.7 17.8957 68.37C17.6957 68.03 17.5957 67.645 17.5957 67.215V67.185ZM26.0186 67.185C26.0186 66.755 26.1186 66.375 26.3186 66.045C26.5086 65.705 26.7736 65.44 27.1136 65.25C27.4436 65.05 27.8236 64.95 28.2536 64.95H36.7136C37.1436 64.95 37.5236 65.05 37.8536 65.25C38.1936 65.44 38.4586 65.705 38.6486 66.045C38.8486 66.375 38.9486 66.755 38.9486 67.185V67.215C38.9486 67.645 38.8486 68.03 38.6486 68.37C38.4586 68.7 38.1936 68.965 37.8536 69.165C37.5236 69.355 37.1436 69.45 36.7136 69.45H28.2536C27.8236 69.45 27.4436 69.355 27.1136 69.165C26.7736 68.965 26.5086 68.7 26.3186 68.37C26.1186 68.03 26.0186 67.645 26.0186 67.215V67.185ZM34.4414 67.185C34.4414 66.755 34.5414 66.375 34.7414 66.045C34.9314 65.705 35.1964 65.44 35.5364 65.25C35.8664 65.05 36.2464 64.95 36.6764 64.95H40.9964C41.4264 64.95 41.8064 65.05 42.1364 65.25C42.4764 65.44 42.7414 65.705 42.9314 66.045C43.1314 66.375 43.2314 66.755 43.2314 67.185V67.215C43.2314 67.645 43.1314 68.03 42.9314 68.37C42.7414 68.7 42.4764 68.965 42.1364 69.165C41.8064 69.355 41.4264 69.45 40.9964 69.45H36.6764C36.2464 69.45 35.8664 69.355 35.5364 69.165C35.1964 68.965 34.9314 68.7 34.7414 68.37C34.5414 68.03 34.4414 67.645 34.4414 67.215V67.185ZM47.7275 67.185C47.7275 66.755 47.8275 66.375 48.0275 66.045C48.2175 65.705 48.4825 65.44 48.8225 65.25C49.1525 65.05 49.5325 64.95 49.9625 64.95H58.4225C58.8525 64.95 59.2325 65.05 59.5625 65.25C59.9025 65.44 60.1675 65.705 60.3575 66.045C60.5575 66.375 60.6575 66.755 60.6575 67.185V67.215C60.6575 67.645 60.5575 68.03 60.3575 68.37C60.1675 68.7 59.9025 68.965 59.5625 69.165C59.2325 69.355 58.8525 69.45 58.4225 69.45H49.9625C49.5325 69.45 49.1525 69.355 48.8225 69.165C48.4825 68.965 48.2175 68.7 48.0275 68.37C47.8275 68.03 47.7275 67.645 47.7275 67.215V67.185ZM56.1504 67.185C56.1504 66.755 56.2504 66.375 56.4504 66.045C56.6404 65.705 56.9054 65.44 57.2454 65.25C57.5754 65.05 57.9554 64.95 58.3854 64.95H66.8454C67.2754 64.95 67.6554 65.05 67.9854 65.25C68.3254 65.44 68.5904 65.705 68.7804 66.045C68.9804 66.375 69.0804 66.755 69.0804 67.185V67.215C69.0804 67.645 68.9804 68.03 68.7804 68.37C68.5904 68.7 68.3254 68.965 67.9854 69.165C67.6554 69.355 67.2754 69.45 66.8454 69.45H58.3854C57.9554 69.45 57.5754 69.355 57.2454 69.165C56.9054 68.965 56.6404 68.7 56.4504 68.37C56.2504 68.03 56.1504 67.645 56.1504 67.215V67.185Z" fill="black" fill-opacity="0.4"/>
<path d="M0.75 95.185C0.75 94.755 0.85 94.375 1.05 94.045C1.24 93.705 1.505 93.44 1.845 93.25C2.175 93.05 2.555 92.95 2.985 92.95H11.445C11.875 92.95 12.255 93.05 12.585 93.25C12.925 93.44 13.19 93.705 13.38 94.045C13.58 94.375 13.68 94.755 13.68 95.185V95.215C13.68 95.645 13.58 96.03 13.38 96.37C13.19 96.7 12.925 96.965 12.585 97.165C12.255 97.355 11.875 97.45 11.445 97.45H2.985C2.555 97.45 2.175 97.355 1.845 97.165C1.505 96.965 1.24 96.7 1.05 96.37C0.85 96.03 0.75 95.645 0.75 95.215V95.185ZM9.17285 95.185C9.17285 94.755 9.27285 94.375 9.47285 94.045C9.66285 93.705 9.92785 93.44 10.2679 93.25C10.5979 93.05 10.9779 92.95 11.4079 92.95H19.8679C20.2979 92.95 20.6779 93.05 21.0079 93.25C21.3479 93.44 21.6129 93.705 21.8029 94.045C22.0029 94.375 22.1029 94.755 22.1029 95.185V95.215C22.1029 95.645 22.0029 96.03 21.8029 96.37C21.6129 96.7 21.3479 96.965 21.0079 97.165C20.6779 97.355 20.2979 97.45 19.8679 97.45H11.4079C10.9779 97.45 10.5979 97.355 10.2679 97.165C9.92785 96.965 9.66285 96.7 9.47285 96.37C9.27285 96.03 9.17285 95.645 9.17285 95.215V95.185ZM17.5957 95.185C17.5957 94.755 17.6957 94.375 17.8957 94.045C18.0857 93.705 18.3507 93.44 18.6907 93.25C19.0207 93.05 19.4007 92.95 19.8307 92.95H28.2907C28.7207 92.95 29.1007 93.05 29.4307 93.25C29.7707 93.44 30.0357 93.705 30.2257 94.045C30.4257 94.375 30.5257 94.755 30.5257 95.185V95.215C30.5257 95.645 30.4257 96.03 30.2257 96.37C30.0357 96.7 29.7707 96.965 29.4307 97.165C29.1007 97.355 28.7207 97.45 28.2907 97.45H19.8307C19.4007 97.45 19.0207 97.355 18.6907 97.165C18.3507 96.965 18.0857 96.7 17.8957 96.37C17.6957 96.03 17.5957 95.645 17.5957 95.215V95.185ZM26.0186 95.185C26.0186 94.755 26.1186 94.375 26.3186 94.045C26.5086 93.705 26.7736 93.44 27.1136 93.25C27.4436 93.05 27.8236 92.95 28.2536 92.95H32.5736C33.0036 92.95 33.3836 93.05 33.7136 93.25C34.0536 93.44 34.3186 93.705 34.5086 94.045C34.7086 94.375 34.8086 94.755 34.8086 95.185V95.215C34.8086 95.645 34.7086 96.03 34.5086 96.37C34.3186 96.7 34.0536 96.965 33.7136 97.165C33.3836 97.355 33.0036 97.45 32.5736 97.45H28.2536C27.8236 97.45 27.4436 97.355 27.1136 97.165C26.7736 96.965 26.5086 96.7 26.3186 96.37C26.1186 96.03 26.0186 95.645 26.0186 95.215V95.185ZM30.3105 95.185C30.3105 94.755 30.4105 94.375 30.6105 94.045C30.8005 93.705 31.0655 93.44 31.4055 93.25C31.7355 93.05 32.1155 92.95 32.5455 92.95H41.0055C41.4355 92.95 41.8155 93.05 42.1455 93.25C42.4855 93.44 42.7505 93.705 42.9405 94.045C43.1405 94.375 43.2405 94.755 43.2405 95.185V95.215C43.2405 95.645 43.1405 96.03 42.9405 96.37C42.7505 96.7 42.4855 96.965 42.1455 97.165C41.8155 97.355 41.4355 97.45 41.0055 97.45H32.5455C32.1155 97.45 31.7355 97.355 31.4055 97.165C31.0655 96.965 30.8005 96.7 30.6105 96.37C30.4105 96.03 30.3105 95.645 30.3105 95.215V95.185ZM38.7334 95.185C38.7334 94.755 38.8334 94.375 39.0334 94.045C39.2234 93.705 39.4884 93.44 39.8284 93.25C40.1584 93.05 40.5384 92.95 40.9684 92.95H49.4284C49.8584 92.95 50.2384 93.05 50.5684 93.25C50.9084 93.44 51.1734 93.705 51.3634 94.045C51.5634 94.375 51.6634 94.755 51.6634 95.185V95.215C51.6634 95.645 51.5634 96.03 51.3634 96.37C51.1734 96.7 50.9084 96.965 50.5684 97.165C50.2384 97.355 49.8584 97.45 49.4284 97.45H40.9684C40.5384 97.45 40.1584 97.355 39.8284 97.165C39.4884 96.965 39.2234 96.7 39.0334 96.37C38.8334 96.03 38.7334 95.645 38.7334 95.215V95.185ZM47.1562 95.185C47.1562 94.755 47.2562 94.375 47.4562 94.045C47.6462 93.705 47.9112 93.44 48.2512 93.25C48.5812 93.05 48.9612 92.95 49.3912 92.95H53.7113C54.1413 92.95 54.5213 93.05 54.8513 93.25C55.1913 93.44 55.4563 93.705 55.6463 94.045C55.8463 94.375 55.9463 94.755 55.9463 95.185V95.215C55.9463 95.645 55.8463 96.03 55.6463 96.37C55.4563 96.7 55.1913 96.965 54.8513 97.165C54.5213 97.355 54.1413 97.45 53.7113 97.45H49.3912C48.9612 97.45 48.5812 97.355 48.2512 97.165C47.9112 96.965 47.6462 96.7 47.4562 96.37C47.2562 96.03 47.1562 95.645 47.1562 95.215V95.185ZM60.4424 95.185C60.4424 94.755 60.5424 94.375 60.7424 94.045C60.9324 93.705 61.1974 93.44 61.5374 93.25C61.8674 93.05 62.2474 92.95 62.6774 92.95H71.1374C71.5674 92.95 71.9474 93.05 72.2774 93.25C72.6174 93.44 72.8824 93.705 73.0724 94.045C73.2724 94.375 73.3724 94.755 73.3724 95.185V95.215C73.3724 95.645 73.2724 96.03 73.0724 96.37C72.8824 96.7 72.6174 96.965 72.2774 97.165C71.9474 97.355 71.5674 97.45 71.1374 97.45H62.6774C62.2474 97.45 61.8674 97.355 61.5374 97.165C61.1974 96.965 60.9324 96.7 60.7424 96.37C60.5424 96.03 60.4424 95.645 60.4424 95.215V95.185ZM68.8652 95.185C68.8652 94.755 68.9652 94.375 69.1652 94.045C69.3552 93.705 69.6202 93.44 69.9602 93.25C70.2902 93.05 70.6702 92.95 71.1002 92.95H79.5602C79.9902 92.95 80.3702 93.05 80.7002 93.25C81.0402 93.44 81.3052 93.705 81.4952 94.045C81.6952 94.375 81.7952 94.755 81.7952 95.185V95.215C81.7952 95.645 81.6952 96.03 81.4952 96.37C81.3052 96.7 81.0402 96.965 80.7002 97.165C80.3702 97.355 79.9902 97.45 79.5602 97.45H71.1002C70.6702 97.45 70.2902 97.355 69.9602 97.165C69.6202 96.965 69.3552 96.7 69.1652 96.37C68.9652 96.03 68.8652 95.645 68.8652 95.215V95.185Z" fill="black" fill-opacity="0.4"/>
<path d="M0.75 123.185C0.75 122.755 0.85 122.375 1.05 122.045C1.24 121.705 1.505 121.44 1.845 121.25C2.175 121.05 2.555 120.95 2.985 120.95H11.445C11.875 120.95 12.255 121.05 12.585 121.25C12.925 121.44 13.19 121.705 13.38 122.045C13.58 122.375 13.68 122.755 13.68 123.185V123.215C13.68 123.645 13.58 124.03 13.38 124.37C13.19 124.7 12.925 124.965 12.585 125.165C12.255 125.355 11.875 125.45 11.445 125.45H2.985C2.555 125.45 2.175 125.355 1.845 125.165C1.505 124.965 1.24 124.7 1.05 124.37C0.85 124.03 0.75 123.645 0.75 123.215V123.185ZM9.17285 123.185C9.17285 122.755 9.27285 122.375 9.47285 122.045C9.66285 121.705 9.92785 121.44 10.2679 121.25C10.5979 121.05 10.9779 120.95 11.4079 120.95H19.8679C20.2979 120.95 20.6779 121.05 21.0079 121.25C21.3479 121.44 21.6129 121.705 21.8029 122.045C22.0029 122.375 22.1029 122.755 22.1029 123.185V123.215C22.1029 123.645 22.0029 124.03 21.8029 124.37C21.6129 124.7 21.3479 124.965 21.0079 125.165C20.6779 125.355 20.2979 125.45 19.8679 125.45H11.4079C10.9779 125.45 10.5979 125.355 10.2679 125.165C9.92785 124.965 9.66285 124.7 9.47285 124.37C9.27285 124.03 9.17285 123.645 9.17285 123.215V123.185ZM17.5957 123.185C17.5957 122.755 17.6957 122.375 17.8957 122.045C18.0857 121.705 18.3507 121.44 18.6907 121.25C19.0207 121.05 19.4007 120.95 19.8307 120.95H28.2907C28.7207 120.95 29.1007 121.05 29.4307 121.25C29.7707 121.44 30.0357 121.705 30.2257 122.045C30.4257 122.375 30.5257 122.755 30.5257 123.185V123.215C30.5257 123.645 30.4257 124.03 30.2257 124.37C30.0357 124.7 29.7707 124.965 29.4307 125.165C29.1007 125.355 28.7207 125.45 28.2907 125.45H19.8307C19.4007 125.45 19.0207 125.355 18.6907 125.165C18.3507 124.965 18.0857 124.7 17.8957 124.37C17.6957 124.03 17.5957 123.645 17.5957 123.215V123.185ZM26.0186 123.185C26.0186 122.755 26.1186 122.375 26.3186 122.045C26.5086 121.705 26.7736 121.44 27.1136 121.25C27.4436 121.05 27.8236 120.95 28.2536 120.95H36.7136C37.1436 120.95 37.5236 121.05 37.8536 121.25C38.1936 121.44 38.4586 121.705 38.6486 122.045C38.8486 122.375 38.9486 122.755 38.9486 123.185V123.215C38.9486 123.645 38.8486 124.03 38.6486 124.37C38.4586 124.7 38.1936 124.965 37.8536 125.165C37.5236 125.355 37.1436 125.45 36.7136 125.45H28.2536C27.8236 125.45 27.4436 125.355 27.1136 125.165C26.7736 124.965 26.5086 124.7 26.3186 124.37C26.1186 124.03 26.0186 123.645 26.0186 123.215V123.185ZM34.4414 123.185C34.4414 122.755 34.5414 122.375 34.7414 122.045C34.9314 121.705 35.1964 121.44 35.5364 121.25C35.8664 121.05 36.2464 120.95 36.6764 120.95H45.1364C45.5664 120.95 45.9464 121.05 46.2764 121.25C46.6164 121.44 46.8814 121.705 47.0714 122.045C47.2714 122.375 47.3714 122.755 47.3714 123.185V123.215C47.3714 123.645 47.2714 124.03 47.0714 124.37C46.8814 124.7 46.6164 124.965 46.2764 125.165C45.9464 125.355 45.5664 125.45 45.1364 125.45H36.6764C36.2464 125.45 35.8664 125.355 35.5364 125.165C35.1964 124.965 34.9314 124.7 34.7414 124.37C34.5414 124.03 34.4414 123.645 34.4414 123.215V123.185ZM42.8643 123.185C42.8643 122.755 42.9643 122.375 43.1643 122.045C43.3543 121.705 43.6193 121.44 43.9593 121.25C44.2893 121.05 44.6693 120.95 45.0993 120.95H49.4193C49.8493 120.95 50.2293 121.05 50.5593 121.25C50.8993 121.44 51.1643 121.705 51.3543 122.045C51.5543 122.375 51.6543 122.755 51.6543 123.185V123.215C51.6543 123.645 51.5543 124.03 51.3543 124.37C51.1643 124.7 50.8993 124.965 50.5593 125.165C50.2293 125.355 49.8493 125.45 49.4193 125.45H45.0993C44.6693 125.45 44.2893 125.355 43.9593 125.165C43.6193 124.965 43.3543 124.7 43.1643 124.37C42.9643 124.03 42.8643 123.645 42.8643 123.215V123.185ZM47.1562 123.185C47.1562 122.755 47.2562 122.375 47.4562 122.045C47.6462 121.705 47.9112 121.44 48.2512 121.25C48.5812 121.05 48.9612 120.95 49.3912 120.95H53.7113C54.1413 120.95 54.5213 121.05 54.8513 121.25C55.1913 121.44 55.4563 121.705 55.6463 122.045C55.8463 122.375 55.9463 122.755 55.9463 123.185V123.215C55.9463 123.645 55.8463 124.03 55.6463 124.37C55.4563 124.7 55.1913 124.965 54.8513 125.165C54.5213 125.355 54.1413 125.45 53.7113 125.45H49.3912C48.9612 125.45 48.5812 125.355 48.2512 125.165C47.9112 124.965 47.6462 124.7 47.4562 124.37C47.2562 124.03 47.1562 123.645 47.1562 123.215V123.185ZM51.4482 123.185C51.4482 122.755 51.5482 122.375 51.7482 122.045C51.9382 121.705 52.2032 121.44 52.5432 121.25C52.8732 121.05 53.2532 120.95 53.6832 120.95H62.1432C62.5732 120.95 62.9532 121.05 63.2832 121.25C63.6232 121.44 63.8882 121.705 64.0782 122.045C64.2782 122.375 64.3782 122.755 64.3782 123.185V123.215C64.3782 123.645 64.2782 124.03 64.0782 124.37C63.8882 124.7 63.6232 124.965 63.2832 125.165C62.9532 125.355 62.5732 125.45 62.1432 125.45H53.6832C53.2532 125.45 52.8732 125.355 52.5432 125.165C52.2032 124.965 51.9382 124.7 51.7482 124.37C51.5482 124.03 51.4482 123.645 51.4482 123.215V123.185ZM59.8711 123.185C59.8711 122.755 59.9711 122.375 60.1711 122.045C60.3611 121.705 60.6261 121.44 60.9661 121.25C61.2961 121.05 61.6761 120.95 62.1061 120.95H70.5661C70.9961 120.95 71.3761 121.05 71.7061 121.25C72.0461 121.44 72.3111 121.705 72.5011 122.045C72.7011 122.375 72.8011 122.755 72.8011 123.185V123.215C72.8011 123.645 72.7011 124.03 72.5011 124.37C72.3111 124.7 72.0461 124.965 71.7061 125.165C71.3761 125.355 70.9961 125.45 70.5661 125.45H62.1061C61.6761 125.45 61.2961 125.355 60.9661 125.165C60.6261 124.965 60.3611 124.7 60.1711 124.37C59.9711 124.03 59.8711 123.645 59.8711 123.215V123.185ZM68.2939 123.185C68.2939 122.755 68.3939 122.375 68.5939 122.045C68.7839 121.705 69.0489 121.44 69.3889 121.25C69.7189 121.05 70.0989 120.95 70.5289 120.95H78.9889C79.4189 120.95 79.7989 121.05 80.1289 121.25C80.4689 121.44 80.7339 121.705 80.9239 122.045C81.1239 122.375 81.2239 122.755 81.2239 123.185V123.215C81.2239 123.645 81.1239 124.03 80.9239 124.37C80.7339 124.7 80.4689 124.965 80.1289 125.165C79.7989 125.355 79.4189 125.45 78.9889 125.45H70.5289C70.0989 125.45 69.7189 125.355 69.3889 125.165C69.0489 124.965 68.7839 124.7 68.5939 124.37C68.3939 124.03 68.2939 123.645 68.2939 123.215V123.185ZM76.7168 123.185C76.7168 122.755 76.8168 122.375 77.0168 122.045C77.2068 121.705 77.4718 121.44 77.8118 121.25C78.1418 121.05 78.5218 120.95 78.9518 120.95H83.2718C83.7018 120.95 84.0818 121.05 84.4118 121.25C84.7518 121.44 85.0168 121.705 85.2068 122.045C85.4068 122.375 85.5068 122.755 85.5068 123.185V123.215C85.5068 123.645 85.4068 124.03 85.2068 124.37C85.0168 124.7 84.7518 124.965 84.4118 125.165C84.0818 125.355 83.7018 125.45 83.2718 125.45H78.9518C78.5218 125.45 78.1418 125.355 77.8118 125.165C77.4718 124.965 77.2068 124.7 77.0168 124.37C76.8168 124.03 76.7168 123.645 76.7168 123.215V123.185ZM90.0029 123.185C90.0029 122.755 90.1029 122.375 90.3029 122.045C90.4929 121.705 90.7579 121.44 91.0979 121.25C91.4279 121.05 91.8079 120.95 92.2379 120.95H100.698C101.128 120.95 101.508 121.05 101.838 121.25C102.178 121.44 102.443 121.705 102.633 122.045C102.833 122.375 102.933 122.755 102.933 123.185V123.215C102.933 123.645 102.833 124.03 102.633 124.37C102.443 124.7 102.178 124.965 101.838 125.165C101.508 125.355 101.128 125.45 100.698 125.45H92.2379C91.8079 125.45 91.4279 125.355 91.0979 125.165C90.7579 124.965 90.4929 124.7 90.3029 124.37C90.1029 124.03 90.0029 123.645 90.0029 123.215V123.185ZM98.4258 123.185C98.4258 122.755 98.5258 122.375 98.7258 122.045C98.9158 121.705 99.1808 121.44 99.5208 121.25C99.8508 121.05 100.231 120.95 100.661 120.95H109.121C109.551 120.95 109.931 121.05 110.261 121.25C110.601 121.44 110.866 121.705 111.056 122.045C111.256 122.375 111.356 122.755 111.356 123.185V123.215C111.356 123.645 111.256 124.03 111.056 124.37C110.866 124.7 110.601 124.965 110.261 125.165C109.931 125.355 109.551 125.45 109.121 125.45H100.661C100.231 125.45 99.8508 125.355 99.5208 125.165C99.1808 124.965 98.9158 124.7 98.7258 124.37C98.5258 124.03 98.4258 123.645 98.4258 123.215V123.185ZM106.849 123.185C106.849 122.755 106.949 122.375 107.149 122.045C107.339 121.705 107.604 121.44 107.944 121.25C108.274 121.05 108.654 120.95 109.084 120.95H117.544C117.974 120.95 118.354 121.05 118.684 121.25C119.024 121.44 119.289 121.705 119.479 122.045C119.679 122.375 119.779 122.755 119.779 123.185V123.215C119.779 123.645 119.679 124.03 119.479 124.37C119.289 124.7 119.024 124.965 118.684 125.165C118.354 125.355 117.974 125.45 117.544 125.45H109.084C108.654 125.45 108.274 125.355 107.944 125.165C107.604 124.965 107.339 124.7 107.149 124.37C106.949 124.03 106.849 123.645 106.849 123.215V123.185ZM115.271 123.185C115.271 122.755 115.371 122.375 115.571 122.045C115.761 121.705 116.026 121.44 116.366 121.25C116.696 121.05 117.076 120.95 117.506 120.95H125.966C126.396 120.95 126.776 121.05 127.106 121.25C127.446 121.44 127.711 121.705 127.901 122.045C128.101 122.375 128.201 122.755 128.201 123.185V123.215C128.201 123.645 128.101 124.03 127.901 124.37C127.711 124.7 127.446 124.965 127.106 125.165C126.776 125.355 126.396 125.45 125.966 125.45H117.506C117.076 125.45 116.696 125.355 116.366 125.165C116.026 124.965 115.761 124.7 115.571 124.37C115.371 124.03 115.271 123.645 115.271 123.215V123.185Z" fill="black" fill-opacity="0.4"/>
</svg>
