<svg width="16" height="16" viewBox="0 0 16 16" fill="none" xmlns="http://www.w3.org/2000/svg">
<path d="M2.66699 13V3.00001C2.66699 2.55798 2.84259 2.13406 3.15515 1.8215C3.46771 1.50894 3.89163 1.33334 4.33366 1.33334H12.667C12.8438 1.33334 13.0134 1.40358 13.1384 1.52861C13.2634 1.65363 13.3337 1.8232 13.3337 2.00001V14C13.3337 14.1768 13.2634 14.3464 13.1384 14.4714C13.0134 14.5964 12.8438 14.6667 12.667 14.6667H4.33366C3.89163 14.6667 3.46771 14.4911 3.15515 14.1785C2.84259 13.866 2.66699 13.442 2.66699 13ZM2.66699 13C2.66699 12.558 2.84259 12.1341 3.15515 11.8215C3.46771 11.5089 3.89163 11.3333 4.33366 11.3333H13.3337M6.00033 6.33334L7.33366 7.66668L10.0003 5.00001" stroke="#666666" stroke-width="1.5" stroke-linecap="round" stroke-linejoin="round"/>
</svg>
