<svg width="24" height="24" viewBox="0 0 24 24" fill="none" xmlns="http://www.w3.org/2000/svg">
<path d="M12.5 22H18C18.5304 22 19.0391 21.7893 19.4142 21.4142C19.7893 21.0391 20 20.5304 20 20V7L15 2H6C5.46957 2 4.96086 2.21071 4.58579 2.58579C4.21071 2.96086 4 3.46957 4 4V13.5M14 2V6C14 6.53043 14.2107 7.03914 14.5858 7.41421C14.9609 7.78929 15.4696 8 16 8H20M13.378 15.626C13.5752 15.4288 13.7317 15.1946 13.8385 14.9369C13.9452 14.6792 14.0001 14.4029 14.0001 14.124C14.0001 13.8451 13.9452 13.5688 13.8385 13.3111C13.7317 13.0534 13.5752 12.8192 13.378 12.622C13.1808 12.4248 12.9466 12.2683 12.6889 12.1615C12.4312 12.0548 12.1549 11.9999 11.876 11.9999C11.5971 11.9999 11.3208 12.0548 11.0631 12.1615C10.8054 12.2683 10.5712 12.4248 10.374 12.622L5.364 17.634C5.12625 17.8716 4.95222 18.1653 4.858 18.488L4.021 21.358C3.9959 21.444 3.9944 21.5353 4.01664 21.6221C4.03889 21.7089 4.08407 21.7882 4.14745 21.8516C4.21083 21.9149 4.29008 21.9601 4.37691 21.9824C4.46374 22.0046 4.55495 22.0031 4.641 21.978L7.511 21.141C7.83367 21.0468 8.12738 20.8728 8.365 20.635L13.378 15.626Z" stroke="black" stroke-width="2" stroke-linecap="round" stroke-linejoin="round"/>
</svg>
