<svg width="24" height="24" viewBox="0 0 24 24" fill="none" xmlns="http://www.w3.org/2000/svg">
<path d="M11.5 15H7C5.93913 15 4.92172 15.4214 4.17157 16.1716C3.42143 16.9217 3 17.9391 3 19V21M21.378 16.626C21.7764 16.2276 22.0001 15.6874 22.0001 15.124C22.0001 14.5606 21.7764 14.0204 21.378 13.622C20.9796 13.2236 20.4394 12.9999 19.876 12.9999C19.3126 12.9999 18.7724 13.2236 18.374 13.622L14.364 17.634C14.1262 17.8716 13.9522 18.1653 13.858 18.488L13.021 21.358C12.9959 21.444 12.9944 21.5353 13.0166 21.6221C13.0389 21.7089 13.0841 21.7882 13.1474 21.8516C13.2108 21.9149 13.2901 21.9601 13.3769 21.9824C13.4637 22.0046 13.555 22.0031 13.641 21.978L16.511 21.141C16.8337 21.0468 17.1274 20.8728 17.365 20.635L21.378 16.626ZM14 7C14 9.20914 12.2091 11 10 11C7.79086 11 6 9.20914 6 7C6 4.79086 7.79086 3 10 3C12.2091 3 14 4.79086 14 7Z" stroke="black" stroke-width="2" stroke-linecap="round" stroke-linejoin="round"/>
</svg>
