<svg width="136" height="32" viewBox="0 0 136 32" fill="none" xmlns="http://www.w3.org/2000/svg">
<g clip-path="url(#clip0_155_7235)">
<path d="M0 4C0 2.89543 0.895431 2 2 2H10C11.1046 2 12 2.89543 12 4V8C12 9.10457 11.1046 10 10 10H2C0.895431 10 0 9.10457 0 8V4Z" fill="#BEC5D8"/>
</g>
<g clip-path="url(#clip1_155_7235)">
<path d="M13 4C13 2.89543 13.8954 2 15 2H23C24.1046 2 25 2.89543 25 4V8C25 9.10457 24.1046 10 23 10H15C13.8954 10 13 9.10457 13 8V4Z" fill="#BEC5D8"/>
</g>
<g clip-path="url(#clip2_155_7235)">
<path d="M26 4C26 2.89543 26.8954 2 28 2H36C37.1046 2 38 2.89543 38 4V8C38 9.10457 37.1046 10 36 10H28C26.8954 10 26 9.10457 26 8V4Z" fill="#BEC5D8"/>
</g>
<g clip-path="url(#clip3_155_7235)">
<path d="M39 4C39 2.89543 39.8954 2 41 2H49C50.1046 2 51 2.89543 51 4V8C51 9.10457 50.1046 10 49 10H41C39.8954 10 39 9.10457 39 8V4Z" fill="#BEC5D8"/>
</g>
<g clip-path="url(#clip4_155_7235)">
<path d="M0 14C0 12.8954 0.895431 12 2 12H10C11.1046 12 12 12.8954 12 14V18C12 19.1046 11.1046 20 10 20H2C0.895431 20 0 19.1046 0 18V14Z" fill="#BEC5D8"/>
</g>
<g clip-path="url(#clip5_155_7235)">
<path d="M13 14C13 12.8954 13.8954 12 15 12H23C24.1046 12 25 12.8954 25 14V18C25 19.1046 24.1046 20 23 20H15C13.8954 20 13 19.1046 13 18V14Z" fill="#BEC5D8"/>
</g>
<g clip-path="url(#clip6_155_7235)">
<path d="M26 14C26 12.8954 26.8954 12 28 12H36C37.1046 12 38 12.8954 38 14V18C38 19.1046 37.1046 20 36 20H28C26.8954 20 26 19.1046 26 18V14Z" fill="#BEC5D8"/>
</g>
<g clip-path="url(#clip7_155_7235)">
<path d="M39 14C39 12.8954 39.8954 12 41 12H49C50.1046 12 51 12.8954 51 14V18C51 19.1046 50.1046 20 49 20H41C39.8954 20 39 19.1046 39 18V14Z" fill="#E3E3E8"/>
</g>
<g clip-path="url(#clip8_155_7235)">
<path d="M0 24C0 22.8954 0.895431 22 2 22H10C11.1046 22 12 22.8954 12 24V28C12 29.1046 11.1046 30 10 30H2C0.895431 30 0 29.1046 0 28V24Z" fill="#BEC5D8"/>
</g>
<g clip-path="url(#clip9_155_7235)">
<path d="M13 24C13 22.8954 13.8954 22 15 22H23C24.1046 22 25 22.8954 25 24V28C25 29.1046 24.1046 30 23 30H15C13.8954 30 13 29.1046 13 28V24Z" fill="#BEC5D8"/>
</g>
<g clip-path="url(#clip10_155_7235)">
<path d="M26 24C26 22.8954 26.8954 22 28 22H36C37.1046 22 38 22.8954 38 24V28C38 29.1046 37.1046 30 36 30H28C26.8954 30 26 29.1046 26 28V24Z" fill="#E3E3E8"/>
</g>
<g clip-path="url(#clip11_155_7235)">
<path d="M39 24C39 22.8954 39.8954 22 41 22H49C50.1046 22 51 22.8954 51 24V28C51 29.1046 50.1046 30 49 30H41C39.8954 30 39 29.1046 39 28V24Z" fill="#E3E3E8"/>
</g>
<path d="M61.688 8.28V13.88H69.208V17.432H61.688V23.352H70.168V27H57.208V4.632H70.168V8.28H61.688ZM85.7593 27L80.8313 18.296H78.7193V27H74.2393V4.664H82.6233C84.3513 4.664 85.8233 4.97333 87.0393 5.592C88.2553 6.18933 89.1619 7.01067 89.7593 8.056C90.3779 9.08 90.6873 10.232 90.6873 11.512C90.6873 12.984 90.2606 14.3173 89.4073 15.512C88.5539 16.6853 87.2846 17.496 85.5993 17.944L90.9433 27H85.7593ZM78.7193 14.936H82.4633C83.6793 14.936 84.5859 14.648 85.1833 14.072C85.7806 13.4747 86.0793 12.6533 86.0793 11.608C86.0793 10.584 85.7806 9.79467 85.1833 9.24C84.5859 8.664 83.6793 8.376 82.4633 8.376H78.7193V14.936ZM93.6513 15.8C93.6513 13.6027 94.1419 11.64 95.1233 9.912C96.1259 8.16267 97.4806 6.808 99.1873 5.848C100.915 4.86667 102.846 4.376 104.979 4.376C107.475 4.376 109.662 5.016 111.539 6.296C113.417 7.576 114.729 9.34667 115.475 11.608H110.323C109.811 10.5413 109.086 9.74133 108.147 9.208C107.23 8.67467 106.163 8.408 104.947 8.408C103.646 8.408 102.483 8.71733 101.459 9.336C100.457 9.93333 99.6673 10.7867 99.0913 11.896C98.5366 13.0053 98.2593 14.3067 98.2593 15.8C98.2593 17.272 98.5366 18.5733 99.0913 19.704C99.6673 20.8133 100.457 21.6773 101.459 22.296C102.483 22.8933 103.646 23.192 104.947 23.192C106.163 23.192 107.23 22.9253 108.147 22.392C109.086 21.8373 109.811 21.0267 110.323 19.96H115.475C114.729 22.2427 113.417 24.024 111.539 25.304C109.683 26.5627 107.497 27.192 104.979 27.192C102.846 27.192 100.915 26.712 99.1873 25.752C97.4806 24.7707 96.1259 23.416 95.1233 21.688C94.1419 19.96 93.6513 17.9973 93.6513 15.8ZM134.502 4.664V8.28H128.55V27H124.07V8.28H118.118V4.664H134.502Z" fill="#5D6374"/>
<defs>
<clipPath id="clip0_155_7235">
<path d="M0 4C0 2.89543 0.895431 2 2 2H10C11.1046 2 12 2.89543 12 4V8C12 9.10457 11.1046 10 10 10H2C0.895431 10 0 9.10457 0 8V4Z" fill="white"/>
</clipPath>
<clipPath id="clip1_155_7235">
<path d="M13 4C13 2.89543 13.8954 2 15 2H23C24.1046 2 25 2.89543 25 4V8C25 9.10457 24.1046 10 23 10H15C13.8954 10 13 9.10457 13 8V4Z" fill="white"/>
</clipPath>
<clipPath id="clip2_155_7235">
<path d="M26 4C26 2.89543 26.8954 2 28 2H36C37.1046 2 38 2.89543 38 4V8C38 9.10457 37.1046 10 36 10H28C26.8954 10 26 9.10457 26 8V4Z" fill="white"/>
</clipPath>
<clipPath id="clip3_155_7235">
<path d="M39 4C39 2.89543 39.8954 2 41 2H49C50.1046 2 51 2.89543 51 4V8C51 9.10457 50.1046 10 49 10H41C39.8954 10 39 9.10457 39 8V4Z" fill="white"/>
</clipPath>
<clipPath id="clip4_155_7235">
<path d="M0 14C0 12.8954 0.895431 12 2 12H10C11.1046 12 12 12.8954 12 14V18C12 19.1046 11.1046 20 10 20H2C0.895431 20 0 19.1046 0 18V14Z" fill="white"/>
</clipPath>
<clipPath id="clip5_155_7235">
<path d="M13 14C13 12.8954 13.8954 12 15 12H23C24.1046 12 25 12.8954 25 14V18C25 19.1046 24.1046 20 23 20H15C13.8954 20 13 19.1046 13 18V14Z" fill="white"/>
</clipPath>
<clipPath id="clip6_155_7235">
<path d="M26 14C26 12.8954 26.8954 12 28 12H36C37.1046 12 38 12.8954 38 14V18C38 19.1046 37.1046 20 36 20H28C26.8954 20 26 19.1046 26 18V14Z" fill="white"/>
</clipPath>
<clipPath id="clip7_155_7235">
<path d="M39 14C39 12.8954 39.8954 12 41 12H49C50.1046 12 51 12.8954 51 14V18C51 19.1046 50.1046 20 49 20H41C39.8954 20 39 19.1046 39 18V14Z" fill="white"/>
</clipPath>
<clipPath id="clip8_155_7235">
<path d="M0 24C0 22.8954 0.895431 22 2 22H10C11.1046 22 12 22.8954 12 24V28C12 29.1046 11.1046 30 10 30H2C0.895431 30 0 29.1046 0 28V24Z" fill="white"/>
</clipPath>
<clipPath id="clip9_155_7235">
<path d="M13 24C13 22.8954 13.8954 22 15 22H23C24.1046 22 25 22.8954 25 24V28C25 29.1046 24.1046 30 23 30H15C13.8954 30 13 29.1046 13 28V24Z" fill="white"/>
</clipPath>
<clipPath id="clip10_155_7235">
<path d="M26 24C26 22.8954 26.8954 22 28 22H36C37.1046 22 38 22.8954 38 24V28C38 29.1046 37.1046 30 36 30H28C26.8954 30 26 29.1046 26 28V24Z" fill="white"/>
</clipPath>
<clipPath id="clip11_155_7235">
<path d="M39 24C39 22.8954 39.8954 22 41 22H49C50.1046 22 51 22.8954 51 24V28C51 29.1046 50.1046 30 49 30H41C39.8954 30 39 29.1046 39 28V24Z" fill="white"/>
</clipPath>
</defs>
</svg>
